<?xml version="1.0" encoding="utf-8"?>
<svg id="svg2" xmlns="http://www.w3.org/2000/svg" width="26.22" height="74.74" viewBox="0 0 26.22 74.74">
  <defs>
    <style>
      .cls-1 {
        fill: #412947;
      }
    </style>
  </defs>
  <title>quarter_restArtboard 1</title>
  <g id="layer1">
    <g id="text2824">
      <path id="path2829" class="cls-1" d="M23.11,23.77q-7.83,9.35-7.83,14t7.45,13.35l-1.55,2.2a13.41,13.41,0,0,0-6.43-2.2q-3.5,0-3.49,4.19t3.81,8.52l-1.4,2.09Q3.11,58,3.11,51.93A6.13,6.13,0,0,1,5.25,47a7.58,7.58,0,0,1,5.15-1.72,11.54,11.54,0,0,1,4.51,1.07L4.13,32q7.67-6.75,7.67-12.22,0-4.35-5.2-10.94h4.28l12.23,14.9"/>
    </g>
  </g>
</svg>

