<?xml version="1.0" standalone="no"?>
<!DOCTYPE svg PUBLIC "-//W3C//DTD SVG 20010904//EN"
 "http://www.w3.org/TR/2001/REC-SVG-20010904/DTD/svg10.dtd">
<svg version="1.0" xmlns="http://www.w3.org/2000/svg"
 width="500.000000pt" height="500.000000pt" viewBox="0 0 500.000000 500.000000"
 preserveAspectRatio="xMidYMid meet">
<metadata>
Created by potrace 1.11, written by Peter Selinger 2001-2013
</metadata>
<g transform="translate(0.000000,500.000000) scale(0.100000,-0.100000)"
fill="#000000" stroke="none">
<path d="M1382 4657 l-252 -192 6 -680 c3 -374 7 -851 9 -1060 2 -209 5 -506
6 -660 l2 -280 -24 3 c-114 12 -262 8 -339 -8 -153 -33 -332 -112 -415 -185
-128 -112 -181 -176 -229 -279 -181 -380 91 -735 564 -734 145 0 299 34 417
93 l48 24 29 -32 c151 -167 246 -246 416 -342 153 -87 372 -159 550 -181 30
-4 66 -8 80 -10 35 -5 249 -5 285 0 17 3 57 8 90 12 33 4 62 8 65 9 3 0 23 5
45 10 22 4 45 9 50 11 323 89 600 259 781 480 l35 42 77 -39 c116 -58 185 -73
337 -74 156 0 200 6 319 47 268 91 472 278 547 500 27 82 34 198 16 267 -12
42 -14 108 -11 305 8 641 15 1085 19 1356 3 162 7 450 10 640 2 190 7 527 10
749 l7 403 -209 -158 c-114 -87 -229 -174 -255 -194 l-48 -35 5 -605 c6 -655
15 -1673 18 -1917 l2 -151 -116 3 c-184 5 -322 -26 -481 -105 -329 -165 -507
-485 -418 -749 20 -60 53 -122 82 -152 44 -47 46 -44 -65 -88 -191 -75 -452
-152 -589 -175 -18 -3 -42 -8 -54 -10 -233 -48 -621 -42 -904 14 -30 6 -66 13
-80 16 -45 8 -270 75 -349 104 -131 47 -221 84 -221 89 0 3 17 17 37 31 21 14
65 53 99 87 169 168 235 362 190 558 -10 40 -13 101 -11 180 2 66 6 255 10
420 3 165 8 361 10 435 2 74 6 261 10 415 3 154 8 343 10 420 2 77 6 275 10
440 3 165 8 363 10 440 9 341 16 685 13 685 -2 -1 -117 -87 -256 -193z"/>
</g>
</svg>
